<?xml version="1.0" encoding="UTF-8" standalone="no"?>
<!DOCTYPE svg PUBLIC "-//W3C//DTD SVG 1.1//EN"
 "http://www.w3.org/Graphics/SVG/1.1/DTD/svg11.dtd">
<!-- Generated by graphviz version 2.36.0 (20140111.2315)
 -->
<!-- Title: g1 Pages: 1 -->
<svg width="168pt" height="148pt"
 viewBox="0.00 0.00 168.00 148.00" xmlns="http://www.w3.org/2000/svg" xmlns:xlink="http://www.w3.org/1999/xlink">
<g id="graph0" class="graph" transform="scale(1 1) rotate(0) translate(4 144)">
<title>g1</title>
<polygon fill="white" stroke="none" points="-4,4 -4,-144 164,-144 164,4 -4,4"/>
<g id="clust1" class="cluster"><title>cluster0</title>
<polygon fill="none" stroke="black" points="8,-8 8,-132 152,-132 152,-8 8,-8"/>
</g>
<!-- sinosc -->
<g id="node1" class="node"><title>sinosc</title>
<polygon fill="none" stroke="red" points="71.25,-52 16.75,-52 16.75,-16 71.25,-16 71.25,-52"/>
<text text-anchor="middle" x="44" y="-30.3" font-family="Times,serif" font-size="14.00">sin&#45;osc</text>
</g>
<!-- out -->
<g id="node2" class="node"><title>out</title>
<polygon fill="none" stroke="red" points="144,-52 90,-52 90,-16 144,-16 144,-52"/>
<text text-anchor="middle" x="117" y="-30.3" font-family="Times,serif" font-size="14.00">out 0</text>
</g>
<!-- sinosc&#45;&gt;out -->
<g id="edge2" class="edge"><title>sinosc&#45;&gt;out</title>
<path fill="none" stroke="red" d="M71.375,-34C74.1746,-34 76.9742,-34 79.7737,-34"/>
<polygon fill="red" stroke="red" points="79.9102,-37.5001 89.9102,-34 79.9101,-30.5001 79.9102,-37.5001"/>
</g>
<!-- freq -->
<g id="node3" class="node"><title>freq</title>
<text text-anchor="middle" x="44" y="-102.3" font-family="Times,serif" font-size="14.00" fill="blue">440</text>
</g>
<!-- freq&#45;&gt;sinosc -->
<g id="edge1" class="edge"><title>freq&#45;&gt;sinosc</title>
<path fill="none" stroke="blue" d="M44,-87.6966C44,-79.9827 44,-70.7125 44,-62.1124"/>
<polygon fill="blue" stroke="blue" points="47.5001,-62.1043 44,-52.1043 40.5001,-62.1044 47.5001,-62.1043"/>
</g>
</g>
</svg>
