<?xml version="1.0" encoding="UTF-8" standalone="no"?>
<!DOCTYPE svg PUBLIC "-//W3C//DTD SVG 1.1//EN"
 "http://www.w3.org/Graphics/SVG/1.1/DTD/svg11.dtd">
<!-- Generated by graphviz version 2.36.0 (20140111.2315)
 -->
<!-- Title: g1 Pages: 1 -->
<svg width="168pt" height="364pt"
 viewBox="0.00 0.00 168.00 364.00" xmlns="http://www.w3.org/2000/svg" xmlns:xlink="http://www.w3.org/1999/xlink">
<g id="graph0" class="graph" transform="scale(1 1) rotate(0) translate(4 360)">
<title>g1</title>
<polygon fill="white" stroke="none" points="-4,4 -4,-360 164,-360 164,4 -4,4"/>
<g id="clust1" class="cluster"><title>cluster0</title>
<polygon fill="none" stroke="black" points="8,-8 8,-348 152,-348 152,-8 8,-8"/>
</g>
<!-- sinosc -->
<g id="node1" class="node"><title>sinosc</title>
<polygon fill="none" stroke="blue" points="143.25,-268 88.75,-268 88.75,-232 143.25,-232 143.25,-268"/>
<text text-anchor="middle" x="116" y="-246.3" font-family="Times,serif" font-size="14.00">sin&#45;osc</text>
</g>
<!-- mul -->
<g id="node7" class="node"><title>mul</title>
<polygon fill="none" stroke="blue" points="143,-196 89,-196 89,-160 143,-160 143,-196"/>
<text text-anchor="middle" x="116" y="-174.3" font-family="Times,serif" font-size="14.00">*</text>
</g>
<!-- sinosc&#45;&gt;mul -->
<g id="edge2" class="edge"><title>sinosc&#45;&gt;mul</title>
<path fill="none" stroke="blue" d="M116,-231.697C116,-223.983 116,-214.712 116,-206.112"/>
<polygon fill="blue" stroke="blue" points="119.5,-206.104 116,-196.104 112.5,-206.104 119.5,-206.104"/>
</g>
<!-- sinosc2 -->
<g id="node2" class="node"><title>sinosc2</title>
<polygon fill="none" stroke="red" points="71.25,-52 16.75,-52 16.75,-16 71.25,-16 71.25,-52"/>
<text text-anchor="middle" x="44" y="-30.3" font-family="Times,serif" font-size="14.00">sin&#45;osc</text>
</g>
<!-- out -->
<g id="node3" class="node"><title>out</title>
<polygon fill="none" stroke="red" points="144,-52 90,-52 90,-16 144,-16 144,-52"/>
<text text-anchor="middle" x="117" y="-30.3" font-family="Times,serif" font-size="14.00">out 0</text>
</g>
<!-- sinosc2&#45;&gt;out -->
<g id="edge7" class="edge"><title>sinosc2&#45;&gt;out</title>
<path fill="none" stroke="red" d="M71.375,-34C74.1746,-34 76.9742,-34 79.7737,-34"/>
<polygon fill="red" stroke="red" points="79.9102,-37.5001 89.9102,-34 79.9101,-30.5001 79.9102,-37.5001"/>
</g>
<!-- speed -->
<g id="node4" class="node"><title>speed</title>
<text text-anchor="middle" x="116" y="-318.3" font-family="Times,serif" font-size="14.00" fill="green">:speed</text>
</g>
<!-- speed&#45;&gt;sinosc -->
<g id="edge1" class="edge"><title>speed&#45;&gt;sinosc</title>
<path fill="none" stroke="blue" d="M116,-303.697C116,-295.983 116,-286.712 116,-278.112"/>
<polygon fill="blue" stroke="blue" points="119.5,-278.104 116,-268.104 112.5,-278.104 119.5,-278.104"/>
</g>
<!-- mul_440 -->
<g id="node5" class="node"><title>mul_440</title>
<text text-anchor="middle" x="43" y="-246.3" font-family="Times,serif" font-size="14.00" fill="green">:freq</text>
</g>
<!-- mul_440&#45;&gt;mul -->
<g id="edge3" class="edge"><title>mul_440&#45;&gt;mul</title>
<path fill="none" stroke="blue" d="M61.0449,-231.697C70.0619,-223.05 81.1179,-212.449 90.9432,-203.027"/>
<polygon fill="blue" stroke="blue" points="93.3672,-205.552 98.1626,-196.104 88.5223,-200.499 93.3672,-205.552"/>
</g>
<!-- add_440 -->
<g id="node6" class="node"><title>add_440</title>
<text text-anchor="middle" x="44" y="-174.3" font-family="Times,serif" font-size="14.00" fill="green">:freq</text>
</g>
<!-- add -->
<g id="node8" class="node"><title>add</title>
<polygon fill="none" stroke="blue" points="71,-124 17,-124 17,-88 71,-88 71,-124"/>
<text text-anchor="middle" x="44" y="-102.3" font-family="Times,serif" font-size="14.00">+</text>
</g>
<!-- add_440&#45;&gt;add -->
<g id="edge5" class="edge"><title>add_440&#45;&gt;add</title>
<path fill="none" stroke="blue" d="M44,-159.697C44,-151.983 44,-142.712 44,-134.112"/>
<polygon fill="blue" stroke="blue" points="47.5001,-134.104 44,-124.104 40.5001,-134.104 47.5001,-134.104"/>
</g>
<!-- mul&#45;&gt;add -->
<g id="edge4" class="edge"><title>mul&#45;&gt;add</title>
<path fill="none" stroke="blue" d="M98.2022,-159.697C89.396,-151.135 78.6179,-140.656 68.9989,-131.304"/>
<polygon fill="blue" stroke="blue" points="71.2028,-128.566 61.593,-124.104 66.3232,-133.585 71.2028,-128.566"/>
</g>
<!-- add&#45;&gt;sinosc2 -->
<g id="edge6" class="edge"><title>add&#45;&gt;sinosc2</title>
<path fill="none" stroke="blue" d="M44,-87.6966C44,-79.9827 44,-70.7125 44,-62.1124"/>
<polygon fill="blue" stroke="blue" points="47.5001,-62.1043 44,-52.1043 40.5001,-62.1044 47.5001,-62.1043"/>
</g>
</g>
</svg>
